<svg id="Camada_1" data-name="Camada 1" xmlns="http://www.w3.org/2000/svg" viewBox="0 0 145.14 146.05"><path d="M138,83.1a2.84,2.84,0,0,1-1-1.29,4.58,4.58,0,0,1-.26-2,5.38,5.38,0,0,1,.53-2,3.56,3.56,0,0,1,1.18-1.38,2.91,2.91,0,0,1,1.63-.51l-.14,2a1.91,1.91,0,0,0-1.23.55,2.13,2.13,0,0,0-.6,1.45,1.85,1.85,0,0,0,.33,1.32,1.38,1.38,0,0,0,1,.53,1.31,1.31,0,0,0,1-.27,2.5,2.5,0,0,0,.64-.79c.16-.32.35-.76.57-1.33a12.54,12.54,0,0,1,.75-1.67,3.2,3.2,0,0,1,1-1.07,2.53,2.53,0,0,1,1.6-.35,2.58,2.58,0,0,1,1.47.56,3,3,0,0,1,.9,1.35,4.86,4.86,0,0,1,.21,2,4.39,4.39,0,0,1-1,2.69,2.88,2.88,0,0,1-2.12,1l.14-2a1.75,1.75,0,0,0,1.07-.52,2,2,0,0,0,.52-1.31,1.88,1.88,0,0,0-.28-1.26,1.41,1.41,0,0,0-1.93-.28,2.15,2.15,0,0,0-.61.77c-.16.31-.35.75-.57,1.3a12,12,0,0,1-.76,1.71,3.19,3.19,0,0,1-1,1.08,2.54,2.54,0,0,1-1.65.36A2.74,2.74,0,0,1,138,83.1Z" transform="translate(-2.43 -1.42)"/><path d="M137.09,91.92l1.08-4.66-2-1.36.45-1.91,9.21,6.42-.48,2-11.09,1.69.44-1.9Zm1.4-.2,5.25-.71-4.4-3Z" transform="translate(-2.43 -1.42)"/><path d="M143,100.4l-10-3.58.62-1.72,10,3.58Z" transform="translate(-2.43 -1.42)"/><path d="M133.22,107.46a2.47,2.47,0,0,1-1.79-.16,2.55,2.55,0,0,1-1.46-1.77,4.26,4.26,0,0,1,.5-2.81l2-4,9.52,4.64-1.94,4a4.21,4.21,0,0,1-1.78,2,2.61,2.61,0,0,1-3.38-1.27,2.76,2.76,0,0,1-.1-1.69A2.84,2.84,0,0,1,133.22,107.46Zm-1.63-2.81a1.63,1.63,0,0,0,2.24,1.08,2.5,2.5,0,0,0,1.11-1.26l1-2.06-3-1.48-1,2.08A2.67,2.67,0,0,0,131.59,104.65Zm5.48-1.69-1,2a2.3,2.3,0,0,0-.27,1.51,1.45,1.45,0,0,0,.83,1,1.4,1.4,0,0,0,1.26.05,2.33,2.33,0,0,0,1-1.19l1-2Z" transform="translate(-2.43 -1.42)"/><path d="M126.16,114l2.76-3.91-1.37-2,1.13-1.6,6.1,9.42-1.21,1.72L122.66,115l1.13-1.6Zm1.38.34,5.12,1.32-2.95-4.39Z" transform="translate(-2.43 -1.42)"/><path d="M117.49,134,110.73,126l1.4-1.2,5.07,6-2.61-8,1.22-1,7.54,3.85-5.07-6,1.39-1.19,6.76,7.94-1.68,1.43-8.21-3.94,2.64,8.69Z" transform="translate(-2.43 -1.42)"/><path d="M104.46,132.21l4.16-2.35-.37-2.42,1.71-1,1.48,11.13-1.83,1-8.74-7,1.71-1Zm1.09.9,4.07,3.39-.8-5.23Z" transform="translate(-2.43 -1.42)"/><path d="M102.21,142.32l-4.09-9.77,1.68-.7,4.1,9.76Z" transform="translate(-2.43 -1.42)"/><path d="M90,136.69a2.86,2.86,0,0,1,.86-1.38,4.41,4.41,0,0,1,1.8-1,5.37,5.37,0,0,1,2.1-.23,3.64,3.64,0,0,1,1.7.6,3,3,0,0,1,1.06,1.34l-1.87.57a1.87,1.87,0,0,0-1-1,2.15,2.15,0,0,0-1.57,0,1.81,1.81,0,0,0-1.11.77,1.44,1.44,0,0,0-.13,1.17,1.34,1.34,0,0,0,.6.8,2.31,2.31,0,0,0,1,.31,13.74,13.74,0,0,0,1.45.06,13.08,13.08,0,0,1,1.83.11,3,3,0,0,1,1.35.55,2.51,2.51,0,0,1,.9,1.37,2.45,2.45,0,0,1,0,1.56,2.8,2.8,0,0,1-.94,1.33,4.77,4.77,0,0,1-1.74.9,4.46,4.46,0,0,1-2.86.05,2.89,2.89,0,0,1-1.7-1.62l1.89-.57a1.76,1.76,0,0,0,.87.81,2,2,0,0,0,1.41,0,1.93,1.93,0,0,0,1.07-.71,1.24,1.24,0,0,0,.14-1.15,1.26,1.26,0,0,0-.56-.76,2.36,2.36,0,0,0-.94-.3c-.35,0-.82-.05-1.42-.06a12.29,12.29,0,0,1-1.86-.1,3.2,3.2,0,0,1-1.38-.56,2.62,2.62,0,0,1-.92-1.42A2.73,2.73,0,0,1,90,136.69Z" transform="translate(-2.43 -1.42)"/><path d="M79.48,143.05l-.14-1.44,6.58-.66.14,1.44Z" transform="translate(-2.43 -1.42)"/><path d="M65.7,137.79a2.79,2.79,0,0,1,1.31-1,4.64,4.64,0,0,1,2-.22,5.29,5.29,0,0,1,2,.57,3.63,3.63,0,0,1,1.36,1.2,2.94,2.94,0,0,1,.48,1.64l-2-.18a1.81,1.81,0,0,0-.53-1.23A2.14,2.14,0,0,0,69,138a1.87,1.87,0,0,0-1.33.3,1.43,1.43,0,0,0-.55,1,1.37,1.37,0,0,0,.25,1,2.38,2.38,0,0,0,.78.65q.48.25,1.32.6a14,14,0,0,1,1.66.78,3.07,3.07,0,0,1,1,1,2.82,2.82,0,0,1-.26,3.06,2.86,2.86,0,0,1-1.37.88,5.07,5.07,0,0,1-2,.18,4.45,4.45,0,0,1-2.67-1,2.88,2.88,0,0,1-1-2.14l2,.18a1.76,1.76,0,0,0,.51,1.08,2.27,2.27,0,0,0,2.56.29,1.25,1.25,0,0,0,.56-1,1.31,1.31,0,0,0-.24-.92,2.23,2.23,0,0,0-.76-.62c-.31-.17-.74-.36-1.29-.59a11.86,11.86,0,0,1-1.69-.8,3,3,0,0,1-1.07-1,2.54,2.54,0,0,1-.32-1.65A2.68,2.68,0,0,1,65.7,137.79Z" transform="translate(-2.43 -1.42)"/><path d="M56.88,136.75l4.64,1.17,1.4-2,1.9.48-6.6,9.09-2-.52L54.7,133.83l1.9.48Zm.17,1.41.61,5.26,3-4.34Z" transform="translate(-2.43 -1.42)"/><path d="M48.28,142.52l3.77-9.9,1.71.65L50,143.17Z" transform="translate(-2.43 -1.42)"/><path d="M41.42,132.58a2.45,2.45,0,0,1,.2-1.78,2.54,2.54,0,0,1,1.79-1.43,4.18,4.18,0,0,1,2.8.56l4,2-4.82,9.43-3.94-2a4.1,4.1,0,0,1-2-1.82,2.39,2.39,0,0,1,.08-2.16,2.36,2.36,0,0,1,1.25-1.19,2.76,2.76,0,0,1,1.69-.07A2.81,2.81,0,0,1,41.42,132.58Zm4.43,3.94-2-1a2.24,2.24,0,0,0-1.5-.3,1.48,1.48,0,0,0-1,.81,1.41,1.41,0,0,0-.07,1.26,2.34,2.34,0,0,0,1.17,1.07l2,1ZM44.26,131a1.48,1.48,0,0,0-1.07.84,1.51,1.51,0,0,0-.06,1.37,2.54,2.54,0,0,0,1.24,1.14l2.05,1,1.53-3-2.05-1.05A2.63,2.63,0,0,0,44.26,131Z" transform="translate(-2.43 -1.42)"/><path d="M35,125.39l3.85,2.84,2.06-1.34,1.58,1.16L32.94,134l-1.7-1.24,2.84-10.86L35.65,123Zm-.37,1.37-1.42,5.1L37.65,129Z" transform="translate(-2.43 -1.42)"/><path d="M15.25,116.36l8.06-6.61,1.17,1.42-6,5,8.09-2.46,1,1.24-4,7.46,6-5,1.16,1.41-8.06,6.61-1.4-1.71,4.09-8.14-8.74,2.48Z" transform="translate(-2.43 -1.42)"/><path d="M17.24,103.37l2.27,4.21,2.43-.32.93,1.72-11.16,1.27-1-1.85,7.21-8.6.93,1.72Zm-.92,1.08-3.47,4,5.25-.69Z" transform="translate(-2.43 -1.42)"/><path d="M7.17,100.92,17,97l.67,1.7-9.84,3.9Z" transform="translate(-2.43 -1.42)"/><path d="M13,88.8a2.86,2.86,0,0,1,1.37.88,4.57,4.57,0,0,1,.93,1.83,5.27,5.27,0,0,1,.19,2.09,3.54,3.54,0,0,1-.64,1.7,2.87,2.87,0,0,1-1.36,1L13,94.45a1.87,1.87,0,0,0,1-.93A2.14,2.14,0,0,0,14,92a1.84,1.84,0,0,0-.76-1.13,1.38,1.38,0,0,0-1.16-.15,1.34,1.34,0,0,0-.81.58,2.2,2.2,0,0,0-.33,1,12.5,12.5,0,0,0-.09,1.45,14.25,14.25,0,0,1-.14,1.83,3.17,3.17,0,0,1-.58,1.33,2.49,2.49,0,0,1-1.39.88,2.59,2.59,0,0,1-1.56,0,2.77,2.77,0,0,1-1.31-1A4.7,4.7,0,0,1,5.05,95a4.45,4.45,0,0,1,0-2.87A2.92,2.92,0,0,1,6.7,90.41l.54,1.9a1.78,1.78,0,0,0-.83.86,2.29,2.29,0,0,0,.64,2.5,1.28,1.28,0,0,0,1.14.16A1.3,1.3,0,0,0,9,95.28a2.33,2.33,0,0,0,.31-.93c0-.35.07-.83.09-1.42a12.87,12.87,0,0,1,.14-1.86,3.17,3.17,0,0,1,.59-1.37,2.63,2.63,0,0,1,1.43-.9A2.73,2.73,0,0,1,13,88.8Z" transform="translate(-2.43 -1.42)"/><path d="M6.88,78.16l1.44-.11.53,6.59-1.44.11Z" transform="translate(-2.43 -1.42)"/><path d="M12,65.79a2.84,2.84,0,0,1,1,1.29,4.58,4.58,0,0,1,.26,2,5.38,5.38,0,0,1-.53,2,3.56,3.56,0,0,1-1.18,1.38A2.91,2.91,0,0,1,10,73l.14-2a1.86,1.86,0,0,0,1.23-.55,2.13,2.13,0,0,0,.6-1.45,1.81,1.81,0,0,0-.33-1.31,1.36,1.36,0,0,0-1-.54,1.31,1.31,0,0,0-1,.27A2.5,2.5,0,0,0,9,68.3c-.16.32-.35.76-.57,1.33a12,12,0,0,1-.75,1.67,3.2,3.2,0,0,1-1,1.07,2.47,2.47,0,0,1-1.6.35,2.58,2.58,0,0,1-1.47-.56,3,3,0,0,1-.9-1.35,4.83,4.83,0,0,1-.21-1.94,4.37,4.37,0,0,1,1-2.69,2.93,2.93,0,0,1,2.12-1l-.14,2a1.77,1.77,0,0,0-1.07.53A1.94,1.94,0,0,0,3.81,69a1.88,1.88,0,0,0,.28,1.26,1.24,1.24,0,0,0,1,.54A1.23,1.23,0,0,0,6,70.5a2.2,2.2,0,0,0,.61-.76c.16-.32.35-.75.57-1.31A11.34,11.34,0,0,1,8,66.73a3.22,3.22,0,0,1,1-1.09,2.67,2.67,0,0,1,1.65-.36A2.74,2.74,0,0,1,12,65.79Z" transform="translate(-2.43 -1.42)"/><path d="M12.91,57l-1.08,4.66,2,1.36-.45,1.91L4.21,58.48l.48-2,11.09-1.69-.44,1.91Zm-1.4.2-5.25.71,4.4,2.95Z" transform="translate(-2.43 -1.42)"/><path d="M7,48.49l10,3.58-.62,1.72-10-3.58Z" transform="translate(-2.43 -1.42)"/><path d="M16.78,41.43a2.47,2.47,0,0,1,1.79.16A2.55,2.55,0,0,1,20,43.36a4.26,4.26,0,0,1-.5,2.81l-2,4L8,45.58l1.94-4a4.13,4.13,0,0,1,1.78-2,2.36,2.36,0,0,1,2.16,0,2.34,2.34,0,0,1,1.22,1.22,2.76,2.76,0,0,1,.1,1.69A2.84,2.84,0,0,1,16.78,41.43Zm-3.85,4.5,1-2a2.28,2.28,0,0,0,.27-1.5,1.45,1.45,0,0,0-.83-1,1.4,1.4,0,0,0-1.26,0,2.37,2.37,0,0,0-1,1.19l-1,2Zm5.48-1.69a1.51,1.51,0,0,0-.87-1.06,1.48,1.48,0,0,0-1.37,0,2.5,2.5,0,0,0-1.11,1.26l-1,2.06,3,1.48,1-2.08A2.66,2.66,0,0,0,18.41,44.24Z" transform="translate(-2.43 -1.42)"/><path d="M23.84,34.88l-2.76,3.9,1.37,2-1.13,1.6L15.21,33l1.22-1.72,10.91,2.62-1.13,1.6Zm-1.38-.35-5.12-1.32,2.95,4.39Z" transform="translate(-2.43 -1.42)"/><path d="M32.51,14.94l6.76,7.94-1.4,1.19L32.8,18.13l2.61,8-1.22,1-7.54-3.84,5.07,5.94L30.33,30.5l-6.76-7.93,1.68-1.44,8.21,3.94-2.64-8.69Z" transform="translate(-2.43 -1.42)"/><path d="M45.54,16.68,41.38,19l.37,2.42-1.71,1L38.56,11.28l1.83-1,8.74,7-1.7,1Zm-1.09-.9-4.07-3.39.8,5.24Z" transform="translate(-2.43 -1.42)"/><path d="M47.79,6.57l4.09,9.77L50.2,17,46.1,7.28Z" transform="translate(-2.43 -1.42)"/><path d="M60,12.2a2.77,2.77,0,0,1-.86,1.38,4.41,4.41,0,0,1-1.8,1,5.37,5.37,0,0,1-2.1.23,3.64,3.64,0,0,1-1.7-.6,2.92,2.92,0,0,1-1.06-1.34l1.87-.57a1.84,1.84,0,0,0,1,1,2.15,2.15,0,0,0,1.57,0A1.82,1.82,0,0,0,58,12.49a1.42,1.42,0,0,0,.13-1.16,1.28,1.28,0,0,0-.6-.8,2.32,2.32,0,0,0-1-.32c-.36,0-.84-.06-1.45-.06A11.71,11.71,0,0,1,53.28,10a3.06,3.06,0,0,1-1.35-.54A2.54,2.54,0,0,1,51,8.12a2.45,2.45,0,0,1,0-1.56A2.85,2.85,0,0,1,52,5.23a4.92,4.92,0,0,1,1.74-.89,4.39,4.39,0,0,1,2.86,0,2.87,2.87,0,0,1,1.7,1.61l-1.89.57a1.7,1.7,0,0,0-.87-.8,2,2,0,0,0-1.41,0A1.93,1.93,0,0,0,53,6.35a1.25,1.25,0,0,0-.14,1.15,1.26,1.26,0,0,0,.56.76,2.36,2.36,0,0,0,.94.3c.35,0,.82,0,1.42.06a13.76,13.76,0,0,1,1.86.1,3.22,3.22,0,0,1,1.38.57A2.56,2.56,0,0,1,60,10.7,2.73,2.73,0,0,1,60,12.2Z" transform="translate(-2.43 -1.42)"/><path d="M70.54,5.84l.15,1.44-6.58.66L64,6.5Z" transform="translate(-2.43 -1.42)"/><path d="M84.3,11.1a2.79,2.79,0,0,1-1.31,1,4.49,4.49,0,0,1-2,.22,5.29,5.29,0,0,1-2-.57,3.63,3.63,0,0,1-1.36-1.2,2.94,2.94,0,0,1-.48-1.64l2,.18a1.85,1.85,0,0,0,.53,1.24,2.09,2.09,0,0,0,1.43.62,1.87,1.87,0,0,0,1.33-.3,1.41,1.41,0,0,0,.55-1,1.38,1.38,0,0,0-.25-1A2.38,2.38,0,0,0,81.85,8q-.48-.25-1.32-.6a12,12,0,0,1-1.66-.78,3.07,3.07,0,0,1-1-1A2.43,2.43,0,0,1,77.51,4a2.53,2.53,0,0,1,.58-1.45,2.94,2.94,0,0,1,1.37-.88,4.89,4.89,0,0,1,2-.17,4.39,4.39,0,0,1,2.67,1,2.88,2.88,0,0,1,1,2.14l-2-.18a1.82,1.82,0,0,0-.51-1.08,2,2,0,0,0-1.29-.54A1.9,1.9,0,0,0,80,3.06a1.27,1.27,0,0,0-.56,1A1.3,1.3,0,0,0,79.7,5a2.23,2.23,0,0,0,.76.62,14.19,14.19,0,0,0,1.29.6A12,12,0,0,1,83.44,7a3.13,3.13,0,0,1,1.07,1,2.57,2.57,0,0,1,.32,1.65A2.68,2.68,0,0,1,84.3,11.1Z" transform="translate(-2.43 -1.42)"/><path d="M93.12,12.14,88.48,11l-1.4,2-1.9-.48,6.6-9.08,2,.51L95.3,15.06l-1.9-.48ZM93,10.74l-.61-5.26-3,4.33Z" transform="translate(-2.43 -1.42)"/><path d="M101.72,6.38,98,16.27l-1.71-.65L100,5.72Z" transform="translate(-2.43 -1.42)"/><path d="M108.58,16.31a2.45,2.45,0,0,1-.2,1.78,2.55,2.55,0,0,1-1.79,1.44,4.25,4.25,0,0,1-2.8-.57l-4-2.05,4.82-9.43,3.94,2a4.15,4.15,0,0,1,2,1.82,2.39,2.39,0,0,1-.08,2.16,2.36,2.36,0,0,1-1.25,1.19,2.76,2.76,0,0,1-1.69.07A2.86,2.86,0,0,1,108.58,16.31Zm-2.84,1.57a1.48,1.48,0,0,0,1.07-.84,1.51,1.51,0,0,0,.06-1.37,2.54,2.54,0,0,0-1.24-1.14l-2-1-1.53,3,2,1.05A2.56,2.56,0,0,0,105.74,17.88Zm-1.59-5.51,2,1a2.21,2.21,0,0,0,1.49.29,1.47,1.47,0,0,0,1-.81,1.41,1.41,0,0,0,.07-1.26,2.34,2.34,0,0,0-1.17-1.07l-2-1Z" transform="translate(-2.43 -1.42)"/><path d="M115,23.5l-3.85-2.83L109.1,22l-1.58-1.16,9.54-5.92,1.7,1.24L115.92,27l-1.57-1.16Zm.37-1.37L116.8,17l-4.45,2.88Z" transform="translate(-2.43 -1.42)"/><path d="M134.75,32.54l-8.06,6.61-1.17-1.43,6-5-8.09,2.47-1-1.25,4-7.46-6,5-1.16-1.42,8.06-6.61,1.41,1.71-4.1,8.14,8.74-2.48Z" transform="translate(-2.43 -1.42)"/><path d="M132.76,45.52l-2.27-4.21-2.43.33-.93-1.73,11.16-1.27,1,1.85-7.21,8.6-.93-1.72Zm.92-1.08,3.46-4-5.24.69Z" transform="translate(-2.43 -1.42)"/><path d="M142.83,48,133,51.88l-.68-1.7,9.84-3.91Z" transform="translate(-2.43 -1.42)"/><path d="M137,60.09a2.81,2.81,0,0,1-1.36-.88,4.53,4.53,0,0,1-.93-1.82,5.31,5.31,0,0,1-.19-2.1,3.54,3.54,0,0,1,.64-1.7,2.93,2.93,0,0,1,1.36-1l.53,1.89a1.8,1.8,0,0,0-1,.93,2.11,2.11,0,0,0-.08,1.56,1.81,1.81,0,0,0,.76,1.13,1.38,1.38,0,0,0,1.16.15,1.31,1.31,0,0,0,.81-.58,2.2,2.2,0,0,0,.33-1,12.46,12.46,0,0,0,.09-1.44,14,14,0,0,1,.14-1.83,3.21,3.21,0,0,1,.58-1.34,2.43,2.43,0,0,1,1.39-.87,2.55,2.55,0,0,1,1.57,0,2.92,2.92,0,0,1,1.3,1A4.75,4.75,0,0,1,145,54a4.42,4.42,0,0,1,0,2.86,2.92,2.92,0,0,1-1.65,1.67l-.54-1.9a1.78,1.78,0,0,0,.83-.86,2,2,0,0,0,0-1.4,1.92,1.92,0,0,0-.69-1.09,1.25,1.25,0,0,0-1.14-.17,1.3,1.3,0,0,0-.78.55,2.33,2.33,0,0,0-.31.93c0,.36-.07.83-.09,1.42a13.14,13.14,0,0,1-.14,1.87,3.18,3.18,0,0,1-.59,1.36,2.57,2.57,0,0,1-1.43.9A2.77,2.77,0,0,1,137,60.09Z" transform="translate(-2.43 -1.42)"/><path d="M143.12,70.73l-1.44.12-.53-6.6,1.44-.11Z" transform="translate(-2.43 -1.42)"/></svg>